{"asset":{"version":"2.0","generator":"THREE.GLTFExporter"},"scenes":[{"nodes":[0],"name":"AuxScene"}],"scene":0,"nodes":[{"mesh":0}],"bufferViews":[{"buffer":0,"byteOffset":0,"byteLength":5112,"target":34962,"byteStride":12},{"buffer":0,"byteOffset":5112,"byteLength":5112,"target":34962,"byteStride":12}],"buffers":[{"byteLength":10224,"uri":"data:application/octet-stream;base64,"}],"accessors":[{"bufferView":0,"componentType":5126,"count":426,"max":[15.060507774353027,0.10000000149011612,12.206611633300781],"min":[-15.0394926071167,0.10000000149011612,-100.94338989257812],"type":"VEC3"},{"bufferView":1,"componentType":5126,"count":426,"max":[0,1,0],"min":[0,1,0],"type":"VEC3"}],"materials":[{"pbrMetallicRoughness":{"baseColorFactor":[0.5019607843137255,0.5019607843137255,0.5019607843137255,1],"metallicFactor":0,"roughnessFactor":1}}],"meshes":[{"primitives":[{"mode":4,"attributes":{"POSITION":0,"NORMAL":1},"material":0}]}]}