{
    "asset" : {
        "generator" : "Khronos glTF Blender I/O v1.6.16",
        "version" : "2.0"
    },
    "scene" : 0,
    "scenes" : [
        {
            "name" : "Scene",
            "nodes" : [
                0,
                1,
                2,
                3
            ]
        }
    ],
    "nodes" : [
        {
            "name" : "Light",
            "rotation" : [
                0.16907575726509094,
                0.7558803558349609,
                -0.27217137813568115,
                0.570947527885437
            ],
            "translation" : [
                4.076245307922363,
                5.903861999511719,
                -3.0007362365722656
            ]
        },
        {
            "name" : "Camera",
            "rotation" : [
                0.483536034822464,
                0.33687159419059753,
                -0.20870360732078552,
                0.7804827094078064
            ],
            "translation" : [
                7.358891487121582,
                4.958309173583984,
                4.930508613586426
            ]
        },
        {
            "mesh" : 0,
            "name" : "Walls",
            "translation" : [
                0,
                0,
                -1.9952824115753174
            ]
        },
        {
            "mesh" : 1,
            "name" : "Ground.002",
            "scale" : [
                -4.900948524475098,
                -4.900948524475098,
                -4.900948524475098
            ],
            "translation" : [
                0,
                -1.806850552558899,
                -2.0333962440490723
            ]
        }
    ],
    "materials" : [
        {
            "doubleSided" : true,
            "name" : "Material.002",
            "pbrMetallicRoughness" : {
                "baseColorFactor" : [
                    0.09908183664083481,
                    0.2476295828819275,
                    0.04801472648978233,
                    1
                ],
                "metallicFactor" : 0,
                "roughnessFactor" : 0.5
            }
        },
        {
            "doubleSided" : true,
            "name" : "Walls Winning",
            "pbrMetallicRoughness" : {
                "baseColorFactor" : [
                    0.8000000715255737,
                    0.5916622281074524,
                    0.07074780762195587,
                    1
                ],
                "metallicFactor" : 0,
                "roughnessFactor" : 0.5
            }
        },
        {
            "doubleSided" : true,
            "name" : "Ground",
            "pbrMetallicRoughness" : {
                "baseColorFactor" : [
                    0.07033738493919373,
                    0.03957440331578255,
                    0.017928751185536385,
                    1
                ],
                "metallicFactor" : 0,
                "roughnessFactor" : 0.5
            }
        }
    ],
    "meshes" : [
        {
            "name" : "Plane.002",
            "primitives" : [
                {
                    "attributes" : {
                        "POSITION" : 0,
                        "NORMAL" : 1,
                        "TEXCOORD_0" : 2
                    },
                    "indices" : 3,
                    "material" : 0
                },
                {
                    "attributes" : {
                        "POSITION" : 4,
                        "NORMAL" : 5,
                        "TEXCOORD_0" : 6
                    },
                    "indices" : 7,
                    "material" : 1
                }
            ]
        },
        {
            "name" : "Plane.005",
            "primitives" : [
                {
                    "attributes" : {
                        "POSITION" : 8,
                        "NORMAL" : 9,
                        "TEXCOORD_0" : 10
                    },
                    "indices" : 11,
                    "material" : 2
                }
            ]
        }
    ],
    "accessors" : [
        {
            "bufferView" : 0,
            "componentType" : 5126,
            "count" : 622,
            "max" : [
                1.0151954889297485,
                0.5775639414787292,
                3.063194513320923
            ],
            "min" : [
                -1.0156046152114868,
                0,
                -1.0509616136550903
            ],
            "type" : "VEC3"
        },
        {
            "bufferView" : 1,
            "componentType" : 5126,
            "count" : 622,
            "type" : "VEC3"
        },
        {
            "bufferView" : 2,
            "componentType" : 5126,
            "count" : 622,
            "type" : "VEC2"
        },
        {
            "bufferView" : 3,
            "componentType" : 5123,
            "count" : 1140,
            "type" : "SCALAR"
        },
        {
            "bufferView" : 4,
            "componentType" : 5126,
            "count" : 136,
            "max" : [
                1.3032912015914917,
                0.7107312083244324,
                -0.9842817783355713
            ],
            "min" : [
                -1.3032910823822021,
                0,
                -6.4650959968566895
            ],
            "type" : "VEC3"
        },
        {
            "bufferView" : 5,
            "componentType" : 5126,
            "count" : 136,
            "type" : "VEC3"
        },
        {
            "bufferView" : 6,
            "componentType" : 5126,
            "count" : 136,
            "type" : "VEC2"
        },
        {
            "bufferView" : 7,
            "componentType" : 5123,
            "count" : 216,
            "type" : "SCALAR"
        },
        {
            "bufferView" : 8,
            "componentType" : 5126,
            "count" : 54,
            "max" : [
                0.26525479555130005,
                -0.3686736524105072,
                1.3184970617294312
            ],
            "min" : [
                -0.26525479555130005,
                -0.3686736524105072,
                -0.631504237651825
            ],
            "type" : "VEC3"
        },
        {
            "bufferView" : 9,
            "componentType" : 5126,
            "count" : 54,
            "type" : "VEC3"
        },
        {
            "bufferView" : 10,
            "componentType" : 5126,
            "count" : 54,
            "type" : "VEC2"
        },
        {
            "bufferView" : 11,
            "componentType" : 5123,
            "count" : 204,
            "type" : "SCALAR"
        }
    ],
    "bufferViews" : [
        {
            "buffer" : 0,
            "byteLength" : 7464,
            "byteOffset" : 0
        },
        {
            "buffer" : 0,
            "byteLength" : 7464,
            "byteOffset" : 7464
        },
        {
            "buffer" : 0,
            "byteLength" : 4976,
            "byteOffset" : 14928
        },
        {
            "buffer" : 0,
            "byteLength" : 2280,
            "byteOffset" : 19904
        },
        {
            "buffer" : 0,
            "byteLength" : 1632,
            "byteOffset" : 22184
        },
        {
            "buffer" : 0,
            "byteLength" : 1632,
            "byteOffset" : 23816
        },
        {
            "buffer" : 0,
            "byteLength" : 1088,
            "byteOffset" : 25448
        },
        {
            "buffer" : 0,
            "byteLength" : 432,
            "byteOffset" : 26536
        },
        {
            "buffer" : 0,
            "byteLength" : 648,
            "byteOffset" : 26968
        },
        {
            "buffer" : 0,
            "byteLength" : 648,
            "byteOffset" : 27616
        },
        {
            "buffer" : 0,
            "byteLength" : 432,
            "byteOffset" : 28264
        },
        {
            "buffer" : 0,
            "byteLength" : 408,
            "byteOffset" : 28696
        }
    ],
    "buffers" : [
        {
            "byteLength" : 29104,
            "uri" : "data:application/octet-stream;base64,"
        }
    ]
}
