{
    "asset" : {
        "generator" : "Khronos glTF Blender I/O v1.6.16",
        "version" : "2.0"
    },
    "scene" : 0,
    "scenes" : [
        {
            "name" : "Scene",
            "nodes" : [
                0,
                1,
                2,
                3,
                4,
                5
            ]
        }
    ],
    "nodes" : [
        {
            "mesh" : 0,
            "name" : "Ground.001",
            "rotation" : [
                0,
                0,
                0,
                -1
            ],
            "scale" : [
                -4.900948524475098,
                -4.900948524475098,
                -4.900948524475098
            ],
            "translation" : [
                0,
                0,
                -5.754843711853027
            ]
        },
        {
            "mesh" : 1,
            "name" : "Walls",
            "rotation" : [
                0,
                0,
                0,
                -1
            ],
            "scale" : [
                -4.900948524475098,
                -4.900948524475098,
                -4.900948524475098
            ],
            "translation" : [
                0,
                0,
                -5.754843711853027
            ]
        },
        {
            "mesh" : 2,
            "name" : "Ground Win",
            "rotation" : [
                0,
                0,
                0,
                -1
            ],
            "scale" : [
                -4.900948524475098,
                -4.900948524475098,
                -4.900948524475098
            ],
            "translation" : [
                0,
                0,
                -5.754843711853027
            ]
        },
        {
            "mesh" : 3,
            "name" : "Winning Walls",
            "rotation" : [
                0,
                0,
                0,
                -1
            ],
            "scale" : [
                -4.900948524475098,
                -4.900948524475098,
                -4.900948524475098
            ],
            "translation" : [
                0,
                0,
                -1.8551864624023438
            ]
        },
        {
            "name" : "Light",
            "rotation" : [
                0.16907575726509094,
                0.7558803558349609,
                -0.27217137813568115,
                0.570947527885437
            ],
            "scale" : [
                512.4391479492188,
                512.4391479492188,
                512.439208984375
            ],
            "translation" : [
                2074.67138671875,
                2953.22265625,
                -529.5571899414062
            ]
        },
        {
            "name" : "Camera",
            "rotation" : [
                0.483536034822464,
                0.33687159419059753,
                -0.20870360732078552,
                0.7804827094078064
            ],
            "scale" : [
                512.4391479492188,
                512.4391479492188,
                512.4390869140625
            ],
            "translation" : [
                3756.827880859375,
                2468.684326171875,
                3534.722900390625
            ]
        }
    ],
    "materials" : [
        {
            "doubleSided" : true,
            "name" : "Ground",
            "pbrMetallicRoughness" : {
                "baseColorFactor" : [
                    0.07033738493919373,
                    0.03957440331578255,
                    0.017928751185536385,
                    1
                ],
                "metallicFactor" : 0,
                "roughnessFactor" : 0.5
            }
        },
        {
            "doubleSided" : true,
            "name" : "Material.002",
            "pbrMetallicRoughness" : {
                "baseColorFactor" : [
                    0.09908183664083481,
                    0.2476295828819275,
                    0.04801472648978233,
                    1
                ],
                "metallicFactor" : 0,
                "roughnessFactor" : 0.5
            }
        },
        {
            "doubleSided" : true,
            "name" : "Ground.001",
            "pbrMetallicRoughness" : {
                "baseColorFactor" : [
                    0.07033738493919373,
                    0.03957440331578255,
                    0.017928751185536385,
                    1
                ],
                "metallicFactor" : 0,
                "roughnessFactor" : 0.5
            }
        },
        {
            "doubleSided" : true,
            "name" : "Walls Winning",
            "pbrMetallicRoughness" : {
                "baseColorFactor" : [
                    0.8000000715255737,
                    0.5916622281074524,
                    0.07074780762195587,
                    1
                ],
                "metallicFactor" : 0,
                "roughnessFactor" : 0.5
            }
        }
    ],
    "meshes" : [
        {
            "name" : "Plane.004",
            "primitives" : [
                {
                    "attributes" : {
                        "POSITION" : 0,
                        "NORMAL" : 1,
                        "TEXCOORD_0" : 2
                    },
                    "indices" : 3,
                    "material" : 0
                }
            ]
        },
        {
            "name" : "Plane.002",
            "primitives" : [
                {
                    "attributes" : {
                        "POSITION" : 4,
                        "NORMAL" : 5,
                        "TEXCOORD_0" : 6
                    },
                    "indices" : 7,
                    "material" : 1
                }
            ]
        },
        {
            "name" : "Plane.006",
            "primitives" : [
                {
                    "attributes" : {
                        "POSITION" : 8,
                        "NORMAL" : 9,
                        "TEXCOORD_0" : 10
                    },
                    "indices" : 11,
                    "material" : 2
                }
            ]
        },
        {
            "name" : "Plane.003",
            "primitives" : [
                {
                    "attributes" : {
                        "POSITION" : 12,
                        "NORMAL" : 13,
                        "TEXCOORD_0" : 14
                    },
                    "indices" : 15,
                    "material" : 3
                }
            ]
        }
    ],
    "accessors" : [
        {
            "bufferView" : 0,
            "componentType" : 5126,
            "count" : 131,
            "max" : [
                0.6033311486244202,
                0,
                0.20430558919906616
            ],
            "min" : [
                -0.5957314372062683,
                -0.002137191826477647,
                -1.3962621688842773
            ],
            "type" : "VEC3"
        },
        {
            "bufferView" : 1,
            "componentType" : 5126,
            "count" : 131,
            "type" : "VEC3"
        },
        {
            "bufferView" : 2,
            "componentType" : 5126,
            "count" : 131,
            "type" : "VEC2"
        },
        {
            "bufferView" : 3,
            "componentType" : 5123,
            "count" : 543,
            "type" : "SCALAR"
        },
        {
            "bufferView" : 4,
            "componentType" : 5126,
            "count" : 1426,
            "max" : [
                0.6083311438560486,
                0,
                0.2077510952949524
            ],
            "min" : [
                -0.6007314324378967,
                -0.11784737557172775,
                -1.4008945226669312
            ],
            "type" : "VEC3"
        },
        {
            "bufferView" : 5,
            "componentType" : 5126,
            "count" : 1426,
            "type" : "VEC3"
        },
        {
            "bufferView" : 6,
            "componentType" : 5126,
            "count" : 1426,
            "type" : "VEC2"
        },
        {
            "bufferView" : 7,
            "componentType" : 5123,
            "count" : 2712,
            "type" : "SCALAR"
        },
        {
            "bufferView" : 8,
            "componentType" : 5126,
            "count" : 12,
            "max" : [
                0.26286566257476807,
                -0.002137191826477647,
                1.302140474319458
            ],
            "min" : [
                -0.26286569237709045,
                -0.002137191826477647,
                0.20430558919906616
            ],
            "type" : "VEC3"
        },
        {
            "bufferView" : 9,
            "componentType" : 5126,
            "count" : 12,
            "type" : "VEC3"
        },
        {
            "bufferView" : 10,
            "componentType" : 5126,
            "count" : 12,
            "type" : "VEC2"
        },
        {
            "bufferView" : 11,
            "componentType" : 5123,
            "count" : 24,
            "type" : "SCALAR"
        },
        {
            "bufferView" : 12,
            "componentType" : 5126,
            "count" : 120,
            "max" : [
                0.2678656578063965,
                0,
                2.109009027481079
            ],
            "min" : [
                -0.26786568760871887,
                -0.14501911401748657,
                1
            ],
            "type" : "VEC3"
        },
        {
            "bufferView" : 13,
            "componentType" : 5126,
            "count" : 120,
            "type" : "VEC3"
        },
        {
            "bufferView" : 14,
            "componentType" : 5126,
            "count" : 120,
            "type" : "VEC2"
        },
        {
            "bufferView" : 15,
            "componentType" : 5123,
            "count" : 228,
            "type" : "SCALAR"
        }
    ],
    "bufferViews" : [
        {
            "buffer" : 0,
            "byteLength" : 1572,
            "byteOffset" : 0
        },
        {
            "buffer" : 0,
            "byteLength" : 1572,
            "byteOffset" : 1572
        },
        {
            "buffer" : 0,
            "byteLength" : 1048,
            "byteOffset" : 3144
        },
        {
            "buffer" : 0,
            "byteLength" : 1086,
            "byteOffset" : 4192
        },
        {
            "buffer" : 0,
            "byteLength" : 17112,
            "byteOffset" : 5280
        },
        {
            "buffer" : 0,
            "byteLength" : 17112,
            "byteOffset" : 22392
        },
        {
            "buffer" : 0,
            "byteLength" : 11408,
            "byteOffset" : 39504
        },
        {
            "buffer" : 0,
            "byteLength" : 5424,
            "byteOffset" : 50912
        },
        {
            "buffer" : 0,
            "byteLength" : 144,
            "byteOffset" : 56336
        },
        {
            "buffer" : 0,
            "byteLength" : 144,
            "byteOffset" : 56480
        },
        {
            "buffer" : 0,
            "byteLength" : 96,
            "byteOffset" : 56624
        },
        {
            "buffer" : 0,
            "byteLength" : 48,
            "byteOffset" : 56720
        },
        {
            "buffer" : 0,
            "byteLength" : 1440,
            "byteOffset" : 56768
        },
        {
            "buffer" : 0,
            "byteLength" : 1440,
            "byteOffset" : 58208
        },
        {
            "buffer" : 0,
            "byteLength" : 960,
            "byteOffset" : 59648
        },
        {
            "buffer" : 0,
            "byteLength" : 456,
            "byteOffset" : 60608
        }
    ],
    "buffers" : [
        {
            "byteLength" : 61064,
            "uri" : "data:application/octet-stream;base64,"
        }
    ]
}
