{
    "asset" : {
        "generator" : "Khronos glTF Blender I/O v1.6.16",
        "version" : "2.0"
    },
    "scene" : 0,
    "scenes" : [
        {
            "name" : "Scene",
            "nodes" : [
                0,
                1,
                2,
                3,
                4
            ]
        }
    ],
    "nodes" : [
        {
            "name" : "Light",
            "rotation" : [
                0.16907575726509094,
                0.7558803558349609,
                -0.27217137813568115,
                0.570947527885437
            ],
            "translation" : [
                4.076245307922363,
                5.903861999511719,
                -2.998173475265503
            ]
        },
        {
            "name" : "Camera",
            "rotation" : [
                0.483536034822464,
                0.33687159419059753,
                -0.20870360732078552,
                0.7804827094078064
            ],
            "translation" : [
                7.358891487121582,
                4.958309173583984,
                4.933071136474609
            ]
        },
        {
            "mesh" : 0,
            "name" : "Plane",
            "translation" : [
                0,
                0,
                -1.9927195310592651
            ]
        },
        {
            "mesh" : 1,
            "name" : "Walls",
            "translation" : [
                0,
                0,
                -1.9927195310592651
            ]
        },
        {
            "mesh" : 2,
            "name" : "Ground.002",
            "scale" : [
                -4.900948524475098,
                -4.900948524475098,
                -4.900948524475098
            ],
            "translation" : [
                0,
                -1.806850552558899,
                -2.0308332443237305
            ]
        }
    ],
    "materials" : [
        {
            "doubleSided" : true,
            "name" : "Ground",
            "pbrMetallicRoughness" : {
                "baseColorFactor" : [
                    0.07033738493919373,
                    0.03957440331578255,
                    0.017928751185536385,
                    1
                ],
                "metallicFactor" : 0,
                "roughnessFactor" : 0.5
            }
        },
        {
            "doubleSided" : true,
            "name" : "Material.002",
            "pbrMetallicRoughness" : {
                "baseColorFactor" : [
                    0.09908183664083481,
                    0.2476295828819275,
                    0.04801472648978233,
                    1
                ],
                "metallicFactor" : 0,
                "roughnessFactor" : 0.5
            }
        },
        {
            "doubleSided" : true,
            "name" : "Walls Winning",
            "pbrMetallicRoughness" : {
                "baseColorFactor" : [
                    0.8000000715255737,
                    0.5916622281074524,
                    0.07074780762195587,
                    1
                ],
                "metallicFactor" : 0,
                "roughnessFactor" : 0.5
            }
        },
        {
            "doubleSided" : true,
            "name" : "Ground.002",
            "pbrMetallicRoughness" : {
                "baseColorFactor" : [
                    0.07033738493919373,
                    0.03957440331578255,
                    0.017928751185536385,
                    1
                ],
                "metallicFactor" : 0,
                "roughnessFactor" : 0.5
            }
        }
    ],
    "meshes" : [
        {
            "name" : "Plane",
            "primitives" : [
                {
                    "attributes" : {
                        "POSITION" : 0,
                        "NORMAL" : 1,
                        "TEXCOORD_0" : 2
                    },
                    "indices" : 3,
                    "material" : 0
                }
            ]
        },
        {
            "name" : "Plane.002",
            "primitives" : [
                {
                    "attributes" : {
                        "POSITION" : 4,
                        "NORMAL" : 5,
                        "TEXCOORD_0" : 6
                    },
                    "indices" : 7,
                    "material" : 1
                },
                {
                    "attributes" : {
                        "POSITION" : 8,
                        "NORMAL" : 9,
                        "TEXCOORD_0" : 10
                    },
                    "indices" : 11,
                    "material" : 2
                }
            ]
        },
        {
            "name" : "Plane.005",
            "primitives" : [
                {
                    "attributes" : {
                        "POSITION" : 12,
                        "NORMAL" : 13,
                        "TEXCOORD_0" : 14
                    },
                    "indices" : 15,
                    "material" : 3
                }
            ]
        }
    ],
    "accessors" : [
        {
            "bufferView" : 0,
            "componentType" : 5126,
            "count" : 58,
            "max" : [
                1.1361429691314697,
                0.010474267415702343,
                3.048947334289551
            ],
            "min" : [
                -1.1372997760772705,
                0,
                -1.0394048690795898
            ],
            "type" : "VEC3"
        },
        {
            "bufferView" : 1,
            "componentType" : 5126,
            "count" : 58,
            "type" : "VEC3"
        },
        {
            "bufferView" : 2,
            "componentType" : 5126,
            "count" : 58,
            "type" : "VEC2"
        },
        {
            "bufferView" : 3,
            "componentType" : 5123,
            "count" : 198,
            "type" : "SCALAR"
        },
        {
            "bufferView" : 4,
            "componentType" : 5126,
            "count" : 610,
            "max" : [
                1.1581642627716064,
                0.5775639414787292,
                3.052145481109619
            ],
            "min" : [
                -1.158164620399475,
                0,
                -1.0426486730575562
            ],
            "type" : "VEC3"
        },
        {
            "bufferView" : 5,
            "componentType" : 5126,
            "count" : 610,
            "type" : "VEC3"
        },
        {
            "bufferView" : 6,
            "componentType" : 5126,
            "count" : 610,
            "type" : "VEC2"
        },
        {
            "bufferView" : 7,
            "componentType" : 5123,
            "count" : 1140,
            "type" : "SCALAR"
        },
        {
            "bufferView" : 8,
            "componentType" : 5126,
            "count" : 124,
            "max" : [
                1.2932912111282349,
                0.7107312083244324,
                -1.0361610651016235
            ],
            "min" : [
                -1.2932910919189453,
                0,
                -6.455096244812012
            ],
            "type" : "VEC3"
        },
        {
            "bufferView" : 9,
            "componentType" : 5126,
            "count" : 124,
            "type" : "VEC3"
        },
        {
            "bufferView" : 10,
            "componentType" : 5126,
            "count" : 124,
            "type" : "VEC2"
        },
        {
            "bufferView" : 11,
            "componentType" : 5123,
            "count" : 216,
            "type" : "SCALAR"
        },
        {
            "bufferView" : 12,
            "componentType" : 5126,
            "count" : 12,
            "max" : [
                0.26286566257476807,
                -0.37205660343170166,
                1.302140474319458
            ],
            "min" : [
                -0.26286569237709045,
                -0.37205660343170166,
                0.20430558919906616
            ],
            "type" : "VEC3"
        },
        {
            "bufferView" : 13,
            "componentType" : 5126,
            "count" : 12,
            "type" : "VEC3"
        },
        {
            "bufferView" : 14,
            "componentType" : 5126,
            "count" : 12,
            "type" : "VEC2"
        },
        {
            "bufferView" : 15,
            "componentType" : 5123,
            "count" : 24,
            "type" : "SCALAR"
        }
    ],
    "bufferViews" : [
        {
            "buffer" : 0,
            "byteLength" : 696,
            "byteOffset" : 0
        },
        {
            "buffer" : 0,
            "byteLength" : 696,
            "byteOffset" : 696
        },
        {
            "buffer" : 0,
            "byteLength" : 464,
            "byteOffset" : 1392
        },
        {
            "buffer" : 0,
            "byteLength" : 396,
            "byteOffset" : 1856
        },
        {
            "buffer" : 0,
            "byteLength" : 7320,
            "byteOffset" : 2252
        },
        {
            "buffer" : 0,
            "byteLength" : 7320,
            "byteOffset" : 9572
        },
        {
            "buffer" : 0,
            "byteLength" : 4880,
            "byteOffset" : 16892
        },
        {
            "buffer" : 0,
            "byteLength" : 2280,
            "byteOffset" : 21772
        },
        {
            "buffer" : 0,
            "byteLength" : 1488,
            "byteOffset" : 24052
        },
        {
            "buffer" : 0,
            "byteLength" : 1488,
            "byteOffset" : 25540
        },
        {
            "buffer" : 0,
            "byteLength" : 992,
            "byteOffset" : 27028
        },
        {
            "buffer" : 0,
            "byteLength" : 432,
            "byteOffset" : 28020
        },
        {
            "buffer" : 0,
            "byteLength" : 144,
            "byteOffset" : 28452
        },
        {
            "buffer" : 0,
            "byteLength" : 144,
            "byteOffset" : 28596
        },
        {
            "buffer" : 0,
            "byteLength" : 96,
            "byteOffset" : 28740
        },
        {
            "buffer" : 0,
            "byteLength" : 48,
            "byteOffset" : 28836
        }
    ],
    "buffers" : [
        {
            "byteLength" : 28884,
            "uri" : "data:application/octet-stream;base64,"
        }
    ]
}
