{
    "asset" : {
        "generator" : "Khronos glTF Blender I/O v1.6.16",
        "version" : "2.0"
    },
    "scene" : 0,
    "scenes" : [
        {
            "name" : "Scene",
            "nodes" : [
                0,
                1,
                2,
                3,
                4,
                5
            ]
        }
    ],
    "nodes" : [
        {
            "name" : "Light",
            "rotation" : [
                0.16907575726509094,
                0.7558803558349609,
                -0.27217137813568115,
                0.570947527885437
            ],
            "translation" : [
                4.076245307922363,
                5.903861999511719,
                -1.0054539442062378
            ]
        },
        {
            "name" : "Camera",
            "rotation" : [
                0.483536034822464,
                0.33687159419059753,
                -0.20870360732078552,
                0.7804827094078064
            ],
            "translation" : [
                7.358891487121582,
                4.958309173583984,
                6.925790786743164
            ]
        },
        {
            "mesh" : 0,
            "name" : "Ground",
            "scale" : [
                -4.900948524475098,
                -4.900948524475098,
                -4.900948524475098
            ]
        },
        {
            "mesh" : 1,
            "name" : "Walls",
            "scale" : [
                -4.900948524475098,
                -4.900948524475098,
                -4.900948524475098
            ]
        },
        {
            "mesh" : 2,
            "name" : "Winning Walls",
            "scale" : [
                -4.900948524475098,
                -4.900948524475098,
                -4.900948524475098
            ]
        },
        {
            "mesh" : 3,
            "name" : "Winning Ground",
            "scale" : [
                -4.900948524475098,
                -4.900948524475098,
                -4.900948524475098
            ]
        }
    ],
    "materials" : [
        {
            "doubleSided" : true,
            "name" : "Ground",
            "pbrMetallicRoughness" : {
                "baseColorFactor" : [
                    0.07033738493919373,
                    0.03957440331578255,
                    0.017928751185536385,
                    1
                ],
                "metallicFactor" : 0,
                "roughnessFactor" : 0.5
            }
        },
        {
            "doubleSided" : true,
            "name" : "Material.002",
            "pbrMetallicRoughness" : {
                "baseColorFactor" : [
                    0.09908183664083481,
                    0.2476295828819275,
                    0.04801472648978233,
                    1
                ],
                "metallicFactor" : 0,
                "roughnessFactor" : 0.5
            }
        },
        {
            "doubleSided" : true,
            "name" : "Walls Winning",
            "pbrMetallicRoughness" : {
                "baseColorFactor" : [
                    0.8000000715255737,
                    0.5916622281074524,
                    0.07074780762195587,
                    1
                ],
                "metallicFactor" : 0,
                "roughnessFactor" : 0.5
            }
        }
    ],
    "meshes" : [
        {
            "name" : "Plane",
            "primitives" : [
                {
                    "attributes" : {
                        "POSITION" : 0,
                        "NORMAL" : 1,
                        "TEXCOORD_0" : 2
                    },
                    "indices" : 3,
                    "material" : 0
                }
            ]
        },
        {
            "name" : "Plane.001",
            "primitives" : [
                {
                    "attributes" : {
                        "POSITION" : 4,
                        "NORMAL" : 5,
                        "TEXCOORD_0" : 6
                    },
                    "indices" : 7,
                    "material" : 1
                }
            ]
        },
        {
            "name" : "Plane.002",
            "primitives" : [
                {
                    "attributes" : {
                        "POSITION" : 8,
                        "NORMAL" : 9,
                        "TEXCOORD_0" : 10
                    },
                    "indices" : 11,
                    "material" : 2
                }
            ]
        },
        {
            "name" : "Plane.003",
            "primitives" : [
                {
                    "attributes" : {
                        "POSITION" : 12,
                        "NORMAL" : 13,
                        "TEXCOORD_0" : 14
                    },
                    "indices" : 15,
                    "material" : 0
                }
            ]
        }
    ],
    "accessors" : [
        {
            "bufferView" : 0,
            "componentType" : 5126,
            "count" : 390,
            "max" : [
                1,
                0,
                1
            ],
            "min" : [
                -1,
                0,
                -1.3962621688842773
            ],
            "type" : "VEC3"
        },
        {
            "bufferView" : 1,
            "componentType" : 5126,
            "count" : 390,
            "type" : "VEC3"
        },
        {
            "bufferView" : 2,
            "componentType" : 5126,
            "count" : 390,
            "type" : "VEC2"
        },
        {
            "bufferView" : 3,
            "componentType" : 5123,
            "count" : 1752,
            "type" : "SCALAR"
        },
        {
            "bufferView" : 4,
            "componentType" : 5126,
            "count" : 4734,
            "max" : [
                1.0049999952316284,
                0,
                1.0049999952316284
            ],
            "min" : [
                -1.0049999952316284,
                -0.11784737557172775,
                -1.4008945226669312
            ],
            "type" : "VEC3"
        },
        {
            "bufferView" : 5,
            "componentType" : 5126,
            "count" : 4734,
            "type" : "VEC3"
        },
        {
            "bufferView" : 6,
            "componentType" : 5126,
            "count" : 4734,
            "type" : "VEC2"
        },
        {
            "bufferView" : 7,
            "componentType" : 5123,
            "count" : 8676,
            "type" : "SCALAR"
        },
        {
            "bufferView" : 8,
            "componentType" : 5126,
            "count" : 120,
            "max" : [
                0.2678656578063965,
                0,
                2.109009027481079
            ],
            "min" : [
                -0.26786568760871887,
                -0.14501911401748657,
                1
            ],
            "type" : "VEC3"
        },
        {
            "bufferView" : 9,
            "componentType" : 5126,
            "count" : 120,
            "type" : "VEC3"
        },
        {
            "bufferView" : 10,
            "componentType" : 5126,
            "count" : 120,
            "type" : "VEC2"
        },
        {
            "bufferView" : 11,
            "componentType" : 5123,
            "count" : 228,
            "type" : "SCALAR"
        },
        {
            "bufferView" : 12,
            "componentType" : 5126,
            "count" : 12,
            "max" : [
                0.26286566257476807,
                0,
                2.097834825515747
            ],
            "min" : [
                -0.26286569237709045,
                0,
                1
            ],
            "type" : "VEC3"
        },
        {
            "bufferView" : 13,
            "componentType" : 5126,
            "count" : 12,
            "type" : "VEC3"
        },
        {
            "bufferView" : 14,
            "componentType" : 5126,
            "count" : 12,
            "type" : "VEC2"
        },
        {
            "bufferView" : 15,
            "componentType" : 5123,
            "count" : 24,
            "type" : "SCALAR"
        }
    ],
    "bufferViews" : [
        {
            "buffer" : 0,
            "byteLength" : 4680,
            "byteOffset" : 0
        },
        {
            "buffer" : 0,
            "byteLength" : 4680,
            "byteOffset" : 4680
        },
        {
            "buffer" : 0,
            "byteLength" : 3120,
            "byteOffset" : 9360
        },
        {
            "buffer" : 0,
            "byteLength" : 3504,
            "byteOffset" : 12480
        },
        {
            "buffer" : 0,
            "byteLength" : 56808,
            "byteOffset" : 15984
        },
        {
            "buffer" : 0,
            "byteLength" : 56808,
            "byteOffset" : 72792
        },
        {
            "buffer" : 0,
            "byteLength" : 37872,
            "byteOffset" : 129600
        },
        {
            "buffer" : 0,
            "byteLength" : 17352,
            "byteOffset" : 167472
        },
        {
            "buffer" : 0,
            "byteLength" : 1440,
            "byteOffset" : 184824
        },
        {
            "buffer" : 0,
            "byteLength" : 1440,
            "byteOffset" : 186264
        },
        {
            "buffer" : 0,
            "byteLength" : 960,
            "byteOffset" : 187704
        },
        {
            "buffer" : 0,
            "byteLength" : 456,
            "byteOffset" : 188664
        },
        {
            "buffer" : 0,
            "byteLength" : 144,
            "byteOffset" : 189120
        },
        {
            "buffer" : 0,
            "byteLength" : 144,
            "byteOffset" : 189264
        },
        {
            "buffer" : 0,
            "byteLength" : 96,
            "byteOffset" : 189408
        },
        {
            "buffer" : 0,
            "byteLength" : 48,
            "byteOffset" : 189504
        }
    ],
    "buffers" : [
        {
            "byteLength" : 189552,
            "uri" : "data:application/octet-stream;base64,"
        }
    ]
}
