{
    "asset" : {
        "generator" : "Khronos glTF Blender I/O v1.6.16",
        "version" : "2.0"
    },
    "scene" : 0,
    "scenes" : [
        {
            "name" : "Scene",
            "nodes" : [
                0,
                1,
                2
            ]
        }
    ],
    "nodes" : [
        {
            "name" : "Light",
            "rotation" : [
                0.16907575726509094,
                0.7558803558349609,
                -0.27217137813568115,
                0.570947527885437
            ],
            "scale" : [
                512.4391479492188,
                512.4391479492188,
                512.439208984375
            ],
            "translation" : [
                2074.67138671875,
                2953.22265625,
                -529.5571899414062
            ]
        },
        {
            "name" : "Camera",
            "rotation" : [
                0.483536034822464,
                0.33687159419059753,
                -0.20870360732078552,
                0.7804827094078064
            ],
            "scale" : [
                512.4391479492188,
                512.4391479492188,
                512.4390869140625
            ],
            "translation" : [
                3756.827880859375,
                2468.684326171875,
                3534.722900390625
            ]
        },
        {
            "mesh" : 0,
            "name" : "Cube",
            "translation" : [
                -0.004637718200683594,
                0,
                1.9450085163116455
            ]
        }
    ],
    "materials" : [
        {
            "doubleSided" : true,
            "name" : "Material.003",
            "pbrMetallicRoughness" : {
                "baseColorFactor" : [
                    1,
                    0.6219391822814941,
                    0.24538654088974,
                    1
                ],
                "metallicFactor" : 0,
                "roughnessFactor" : 0.5
            }
        }
    ],
    "meshes" : [
        {
            "name" : "Cube.001",
            "primitives" : [
                {
                    "attributes" : {
                        "POSITION" : 0,
                        "NORMAL" : 1,
                        "TEXCOORD_0" : 2
                    },
                    "indices" : 3,
                    "material" : 0
                }
            ]
        }
    ],
    "accessors" : [
        {
            "bufferView" : 0,
            "componentType" : 5126,
            "count" : 424,
            "max" : [
                2.041102409362793,
                0.018037185072898865,
                3.527259111404419
            ],
            "min" : [
                -2.709948778152466,
                -0.006699696183204651,
                -2.8643510341644287
            ],
            "type" : "VEC3"
        },
        {
            "bufferView" : 1,
            "componentType" : 5126,
            "count" : 424,
            "type" : "VEC3"
        },
        {
            "bufferView" : 2,
            "componentType" : 5126,
            "count" : 424,
            "type" : "VEC2"
        },
        {
            "bufferView" : 3,
            "componentType" : 5123,
            "count" : 894,
            "type" : "SCALAR"
        }
    ],
    "bufferViews" : [
        {
            "buffer" : 0,
            "byteLength" : 5088,
            "byteOffset" : 0
        },
        {
            "buffer" : 0,
            "byteLength" : 5088,
            "byteOffset" : 5088
        },
        {
            "buffer" : 0,
            "byteLength" : 3392,
            "byteOffset" : 10176
        },
        {
            "buffer" : 0,
            "byteLength" : 1788,
            "byteOffset" : 13568
        }
    ],
    "buffers" : [
        {
            "byteLength" : 15356,
            "uri" : "data:application/octet-stream;base64,"
        }
    ]
}
