{
    "asset" : {
        "generator" : "Khronos glTF Blender I/O v1.6.16",
        "version" : "2.0"
    },
    "scene" : 0,
    "scenes" : [
        {
            "name" : "Scene",
            "nodes" : [
                0,
                1,
                2,
                3
            ]
        }
    ],
    "nodes" : [
        {
            "name" : "Light",
            "rotation" : [
                0.16907575726509094,
                0.7558803558349609,
                -0.27217137813568115,
                0.570947527885437
            ],
            "translation" : [
                4.076245307922363,
                5.903861999511719,
                -1.0054539442062378
            ]
        },
        {
            "name" : "Camera",
            "rotation" : [
                0.483536034822464,
                0.33687159419059753,
                -0.20870360732078552,
                0.7804827094078064
            ],
            "translation" : [
                7.358891487121582,
                4.958309173583984,
                6.925790786743164
            ]
        },
        {
            "mesh" : 0,
            "name" : "Plane",
            "rotation" : [
                0,
                -0.7071068286895752,
                0,
                -0.7071068286895752
            ],
            "scale" : [
                12.4866943359375,
                12.4866943359375,
                12.4866943359375
            ],
            "translation" : [
                -12.099166870117188,
                -0.08749589323997498,
                -12.601485252380371
            ]
        },
        {
            "mesh" : 1,
            "name" : "Curve",
            "scale" : [
                672.4960327148438,
                672.4960327148438,
                672.4960327148438
            ]
        }
    ],
    "materials" : [
        {
            "doubleSided" : true,
            "name" : "SVGMat.001",
            "pbrMetallicRoughness" : {
                "baseColorFactor" : [
                    0,
                    0,
                    0,
                    1
                ],
                "metallicFactor" : 0,
                "roughnessFactor" : 0.4000000059604645
            }
        }
    ],
    "meshes" : [
        {
            "name" : "Plane",
            "primitives" : [
                {
                    "attributes" : {
                        "POSITION" : 0,
                        "NORMAL" : 1,
                        "TEXCOORD_0" : 2
                    },
                    "indices" : 3
                }
            ]
        },
        {
            "name" : "Curve",
            "primitives" : [
                {
                    "attributes" : {
                        "POSITION" : 4,
                        "NORMAL" : 5,
                        "TEXCOORD_0" : 6
                    },
                    "indices" : 7,
                    "material" : 0
                }
            ]
        }
    ],
    "accessors" : [
        {
            "bufferView" : 0,
            "componentType" : 5126,
            "count" : 8237,
            "max" : [
                1.415426254272461,
                0.9337631464004517,
                2.1361935138702393
            ],
            "min" : [
                -1.4014732837677002,
                0.009025576524436474,
                0.106193408370018
            ],
            "type" : "VEC3"
        },
        {
            "bufferView" : 1,
            "componentType" : 5126,
            "count" : 8237,
            "type" : "VEC3"
        },
        {
            "bufferView" : 2,
            "componentType" : 5126,
            "count" : 8237,
            "type" : "VEC2"
        },
        {
            "bufferView" : 3,
            "componentType" : 5123,
            "count" : 20280,
            "type" : "SCALAR"
        },
        {
            "bufferView" : 4,
            "componentType" : 5126,
            "count" : 1038,
            "max" : [
                0.03746085613965988,
                0,
                0
            ],
            "min" : [
                0,
                0,
                -0.03745294362306595
            ],
            "type" : "VEC3"
        },
        {
            "bufferView" : 5,
            "componentType" : 5126,
            "count" : 1038,
            "type" : "VEC3"
        },
        {
            "bufferView" : 6,
            "componentType" : 5126,
            "count" : 1038,
            "type" : "VEC2"
        },
        {
            "bufferView" : 7,
            "componentType" : 5123,
            "count" : 2388,
            "type" : "SCALAR"
        }
    ],
    "bufferViews" : [
        {
            "buffer" : 0,
            "byteLength" : 98844,
            "byteOffset" : 0
        },
        {
            "buffer" : 0,
            "byteLength" : 98844,
            "byteOffset" : 98844
        },
        {
            "buffer" : 0,
            "byteLength" : 65896,
            "byteOffset" : 197688
        },
        {
            "buffer" : 0,
            "byteLength" : 40560,
            "byteOffset" : 263584
        },
        {
            "buffer" : 0,
            "byteLength" : 12456,
            "byteOffset" : 304144
        },
        {
            "buffer" : 0,
            "byteLength" : 12456,
            "byteOffset" : 316600
        },
        {
            "buffer" : 0,
            "byteLength" : 8304,
            "byteOffset" : 329056
        },
        {
            "buffer" : 0,
            "byteLength" : 4776,
            "byteOffset" : 337360
        }
    ],
    "buffers" : [
        {
            "byteLength" : 342136,
            "uri" : "data:application/octet-stream;base64,"
        }
    ]
}
