{"asset":{"version":"2.0","generator":"THREE.GLTFExporter"},"scenes":[{"nodes":[0],"name":"AuxScene"}],"scene":0,"nodes":[{"mesh":0}],"bufferViews":[{"buffer":0,"byteOffset":0,"byteLength":26136,"target":34962,"byteStride":12},{"buffer":0,"byteOffset":26136,"byteLength":26136,"target":34962,"byteStride":12}],"buffers":[{"byteLength":52272,"uri":"data:application/octet-stream;base64,"}],"accessors":[{"bufferView":0,"componentType":5126,"count":2178,"max":[35.073204040527344,3.5999999046325684,13.104034423828125],"min":[-35.52679443359375,0.10000000149011612,-146.0459747314453],"type":"VEC3"},{"bufferView":1,"componentType":5126,"count":2178,"max":[0.5547053217887878,1,0.6979748010635376],"min":[-0.5547027587890625,0.716096818447113,-0.023722592741250992],"type":"VEC3"}],"materials":[{"pbrMetallicRoughness":{"baseColorFactor":[0.5019607843137255,0.5019607843137255,0.5019607843137255,1],"metallicFactor":0,"roughnessFactor":1}}],"meshes":[{"primitives":[{"mode":4,"attributes":{"POSITION":0,"NORMAL":1},"material":0}]}]}