{"asset":{"version":"2.0","generator":"THREE.GLTFExporter"},"scenes":[{"nodes":[0],"name":"AuxScene"}],"scene":0,"nodes":[{"mesh":0}],"bufferViews":[{"buffer":0,"byteOffset":0,"byteLength":26820,"target":34962,"byteStride":12},{"buffer":0,"byteOffset":26820,"byteLength":26820,"target":34962,"byteStride":12}],"buffers":[{"byteLength":53640,"uri":"data:application/octet-stream;base64,"}],"accessors":[{"bufferView":0,"componentType":5126,"count":2235,"max":[13.976835250854492,11.65000057220459,4.274512767791748],"min":[-10.173164367675781,0.4000000059604645,-29.675485610961914],"type":"VEC3"},{"bufferView":1,"componentType":5126,"count":2235,"max":[0,1,0],"min":[0,1,0],"type":"VEC3"}],"materials":[{"pbrMetallicRoughness":{"baseColorFactor":[0.5019607843137255,0.5019607843137255,0.5019607843137255,1],"metallicFactor":0,"roughnessFactor":1}}],"meshes":[{"primitives":[{"mode":4,"attributes":{"POSITION":0,"NORMAL":1},"material":0}]}]}