{"asset":{"version":"2.0","generator":"THREE.GLTFExporter"},"scenes":[{"nodes":[0],"name":"AuxScene"}],"scene":0,"nodes":[{"mesh":0}],"bufferViews":[{"buffer":0,"byteOffset":0,"byteLength":77796,"target":34962,"byteStride":12},{"buffer":0,"byteOffset":77796,"byteLength":77796,"target":34962,"byteStride":12}],"buffers":[{"byteLength":155592,"uri":"data:application/octet-stream;base64,"}],"accessors":[{"bufferView":0,"componentType":5126,"count":6483,"max":[58.844566345214844,0.10000000149011612,82.11627197265625],"min":[-58.855438232421875,0.10000000149011612,-123.78373718261719],"type":"VEC3"},{"bufferView":1,"componentType":5126,"count":6483,"max":[0,1,0],"min":[0,1,0],"type":"VEC3"}],"materials":[{"pbrMetallicRoughness":{"baseColorFactor":[0.5019607843137255,0.5019607843137255,0.5019607843137255,1],"metallicFactor":0,"roughnessFactor":1}}],"meshes":[{"primitives":[{"mode":4,"attributes":{"POSITION":0,"NORMAL":1},"material":0}]}]}