{
    "asset" : {
        "generator" : "Khronos glTF Blender I/O v1.6.16",
        "version" : "2.0"
    },
    "scene" : 0,
    "scenes" : [
        {
            "name" : "Scene",
            "nodes" : [
                0,
                1,
                2,
                3
            ]
        }
    ],
    "nodes" : [
        {
            "name" : "Light",
            "rotation" : [
                0.16907575726509094,
                0.7558803558349609,
                -0.27217137813568115,
                0.570947527885437
            ],
            "translation" : [
                4.076245307922363,
                5.903861999511719,
                -1.0054539442062378
            ]
        },
        {
            "name" : "Camera",
            "rotation" : [
                0.483536034822464,
                0.33687159419059753,
                -0.20870360732078552,
                0.7804827094078064
            ],
            "translation" : [
                7.358891487121582,
                4.958309173583984,
                6.925790786743164
            ]
        },
        {
            "mesh" : 0,
            "name" : "Cube",
            "translation" : [
                0,
                2.2500739097595215,
                0
            ]
        },
        {
            "mesh" : 1,
            "name" : "Cube.001",
            "scale" : [
                1.079420804977417,
                1.079420804977417,
                1.079420804977417
            ],
            "translation" : [
                0,
                0.7054416537284851,
                0
            ]
        }
    ],
    "materials" : [
        {
            "doubleSided" : true,
            "name" : "Material.001",
            "pbrMetallicRoughness" : {
                "baseColorFactor" : [
                    0.8000000715255737,
                    0.552494466304779,
                    0.08927752822637558,
                    1
                ],
                "metallicFactor" : 0,
                "roughnessFactor" : 0.5
            }
        },
        {
            "doubleSided" : true,
            "name" : "Material.002",
            "pbrMetallicRoughness" : {
                "baseColorFactor" : [
                    0.07836796343326569,
                    0.02620820887386799,
                    0.006689462810754776,
                    1
                ],
                "metallicFactor" : 0,
                "roughnessFactor" : 0.5
            }
        }
    ],
    "meshes" : [
        {
            "name" : "Cube.001",
            "primitives" : [
                {
                    "attributes" : {
                        "POSITION" : 0,
                        "NORMAL" : 1,
                        "TEXCOORD_0" : 2
                    },
                    "indices" : 3,
                    "material" : 0
                }
            ]
        },
        {
            "name" : "Cube.003",
            "primitives" : [
                {
                    "attributes" : {
                        "POSITION" : 4,
                        "NORMAL" : 5,
                        "TEXCOORD_0" : 6
                    },
                    "indices" : 7,
                    "material" : 1
                }
            ]
        }
    ],
    "accessors" : [
        {
            "bufferView" : 0,
            "componentType" : 5126,
            "count" : 19954,
            "max" : [
                0.970481276512146,
                2.1281533241271973,
                0.970481276512146
            ],
            "min" : [
                -0.970481276512146,
                -0.9990438222885132,
                -0.970481276512146
            ],
            "type" : "VEC3"
        },
        {
            "bufferView" : 1,
            "componentType" : 5126,
            "count" : 19954,
            "type" : "VEC3"
        },
        {
            "bufferView" : 2,
            "componentType" : 5126,
            "count" : 19954,
            "type" : "VEC2"
        },
        {
            "bufferView" : 3,
            "componentType" : 5123,
            "count" : 29952,
            "type" : "SCALAR"
        },
        {
            "bufferView" : 4,
            "componentType" : 5126,
            "count" : 48,
            "max" : [
                1.534326434135437,
                0.5762518644332886,
                1.534326434135437
            ],
            "min" : [
                -1.534326434135437,
                -0.6948472261428833,
                -1.534326434135437
            ],
            "type" : "VEC3"
        },
        {
            "bufferView" : 5,
            "componentType" : 5126,
            "count" : 48,
            "type" : "VEC3"
        },
        {
            "bufferView" : 6,
            "componentType" : 5126,
            "count" : 48,
            "type" : "VEC2"
        },
        {
            "bufferView" : 7,
            "componentType" : 5123,
            "count" : 84,
            "type" : "SCALAR"
        }
    ],
    "bufferViews" : [
        {
            "buffer" : 0,
            "byteLength" : 239448,
            "byteOffset" : 0
        },
        {
            "buffer" : 0,
            "byteLength" : 239448,
            "byteOffset" : 239448
        },
        {
            "buffer" : 0,
            "byteLength" : 159632,
            "byteOffset" : 478896
        },
        {
            "buffer" : 0,
            "byteLength" : 59904,
            "byteOffset" : 638528
        },
        {
            "buffer" : 0,
            "byteLength" : 576,
            "byteOffset" : 698432
        },
        {
            "buffer" : 0,
            "byteLength" : 576,
            "byteOffset" : 699008
        },
        {
            "buffer" : 0,
            "byteLength" : 384,
            "byteOffset" : 699584
        },
        {
            "buffer" : 0,
            "byteLength" : 168,
            "byteOffset" : 699968
        }
    ],
    "buffers" : [
        {
            "byteLength" : 700136,
            "uri" : "data:application/octet-stream;base64,"
        }
    ]
}
